<svg width="520" height="488" xmlns="http://www.w3.org/2000/svg" xmlns:xlink="http://www.w3.org/1999/xlink" xml:space="preserve" overflow="hidden"><defs><clipPath id="clip0"><rect x="2082" y="1324" width="520" height="488"/></clipPath></defs><g clip-path="url(#clip0)" transform="translate(-2082 -1324)"><path d="M2526.11 1470.68C2521.59 1441.79 2506.33 1415.85 2483.73 1398.76 2460.56 1381.67 2431.18 1375.18 2402.93 1381.08 2375.24 1336.87 2323.81 1315.06 2274.65 1327.43 2226.62 1340.4 2190.46 1382.26 2183.11 1433.54 2151.47 1434.72 2121.52 1450.63 2102.3 1477.16 2079.7 1510.17 2075.74 1553.2 2091.57 1590.34 2107.95 1626.88 2141.86 1651.05 2180.28 1653.41L2221.53 1653.41 2206.28 1633.96 2192.15 1616.86 2181.98 1616.86C2156.55 1615.1 2133.95 1599.18 2122.65 1575.01 2111.91 1550.25 2114.74 1521.96 2129.99 1499.56 2145.25 1477.75 2170.68 1467.14 2196.67 1471.27L2216.45 1474.8 2216.45 1451.81C2216.45 1409.96 2243.57 1373.41 2282.56 1363.39 2321.55 1353.37 2361.67 1373.41 2379.76 1410.55L2386.54 1424.7 2400.67 1419.39C2422.14 1411.73 2445.31 1415.27 2463.95 1428.82 2482.04 1442.97 2492.77 1464.78 2493.34 1488.36L2493.34 1506.63 2516.51 1506.63C2545.33 1507.81 2567.93 1532.57 2567.36 1562.04 2567.36 1592.11 2544.2 1616.27 2515.94 1616.86L2486.56 1616.86 2471.86 1633.96 2456.04 1654 2515.94 1654C2561.71 1652.82 2599.01 1615.1 2601.83 1567.35 2604.66 1519.6 2571.32 1477.75 2526.11 1470.68Z" fill="#15FF15" fill-rule="evenodd"/><g><g><g><path d="M2463.69 1554.53 2434.47 1525.31 2342 1617.78 2249.53 1525.31 2220.31 1554.53 2312.78 1647 2220.31 1739.47 2249.53 1768.69 2342 1676.22 2434.47 1768.69 2463.69 1739.47 2371.22 1647Z" fill="#15FF15"/></g></g></g></g></svg>